<?xml version="1.0" encoding="UTF-8" standalone="no"?>
<!-- Created with Inkscape (http://www.inkscape.org/) -->

<svg
   xmlns:dc="http://purl.org/dc/elements/1.1/"
   xmlns:cc="http://creativecommons.org/ns#"
   xmlns:rdf="http://www.w3.org/1999/02/22-rdf-syntax-ns#"
   xmlns:svg="http://www.w3.org/2000/svg"
   xmlns="http://www.w3.org/2000/svg"
   version="1.1"
   width="715.74799"
   height="299.05511"
   id="svg3597">
  <defs
     id="defs3599">
    <clipPath
       id="clipPath3426">
      <path
         d="M 0,792 612,792 612,0 0,0 0,792 z"
         id="path3428" />
    </clipPath>
  </defs>
  <metadata
     id="metadata3602">
    <rdf:RDF>
      <cc:Work
         rdf:about="">
        <dc:format>image/svg+xml</dc:format>
        <dc:type
           rdf:resource="http://purl.org/dc/dcmitype/StillImage" />
        <dc:title></dc:title>
      </cc:Work>
    </rdf:RDF>
  </metadata>
  <g
     transform="translate(-52.044649,-276.0821)"
     id="layer1">
    <g
       transform="matrix(7.1160962,0,0,-7.1160962,-312.61739,1141.3445)"
       id="g3420">
      <g
         id="g3422">
        <g
           clip-path="url(#clipPath3426)"
           id="g3424">
          <g
             transform="translate(68.9116,116.8012)"
             id="g3430">
            <path
               d="M 0,0 -4.3,4.284 -8.584,0 -12.885,4.284 -17.169,0 -4.3,-12.852 8.584,0 4.284,4.284 0,0 z"
               id="path3432"
               style="fill:#ce1141;fill-opacity:1;fill-rule:nonzero;stroke:none" />
          </g>
          <g
             transform="translate(63.3425,80.2393)"
             id="g3434">
            <path
               d="m 0,0 -4.07,0 -2.026,16.839 3.658,0 0.708,-11.978 0.066,0 1.334,11.978 3.84,0 0.972,-11.978 0.033,0 1.12,11.978 3.131,0 L 6.772,0 2.653,0 1.269,12.984 1.252,12.984 0,0 z"
               id="path3436"
               style="fill:#000000;fill-opacity:1;fill-rule:nonzero;stroke:none" />
          </g>
          <g
             transform="translate(75.8319,90.6362)"
             id="g3438">
            <path
               d="m 0,0 0.165,-0.017 0.148,-0.049 0.132,-0.099 0.082,-0.099 0.05,-0.131 0.033,-0.165 0.016,-0.182 0,-1.73 -0.675,0 0,-2.043 3.888,0 0,3.263 L 3.74,-0.395 3.575,0.313 3.262,0.923 2.85,1.4 2.257,1.796 1.615,2.076 0.824,2.241 0.198,2.274 l -0.247,0 0,-2.258 L 0,0 z m -0.049,-10.545 0,2.257 0.098,0 0.198,0.083 0.148,0.148 0.116,0.231 0.066,0.23 0.049,0.247 0,0.264 0,1.598 3.213,0 0,-1.812 L 3.74,-8.041 3.575,-8.716 3.262,-9.26 2.85,-9.738 l -0.593,-0.346 -0.642,-0.247 -0.791,-0.148 -0.857,-0.083 -0.016,0.017 z m 0,8.073 -0.693,0 0,1.73 0,0.198 0.017,0.149 0.049,0.131 0.083,0.116 0.099,0.082 0.132,0.033 0.131,0.033 0.116,0.016 0.066,0 0,2.258 -0.462,0 L -0.972,2.241 -1.384,2.175 -1.747,2.093 -2.126,1.961 -2.422,1.812 -2.735,1.598 -2.982,1.4 -3.213,1.153 -3.394,0.857 l -0.198,-0.28 -0.132,-0.33 -0.099,-0.313 -0.082,-0.379 -0.049,-0.362 0,-0.445 0,-5.965 0,-0.379 0.049,-0.379 0.082,-0.362 0.165,-0.346 0.165,-0.28 0.181,-0.297 0.264,-0.264 0.28,-0.247 0.263,-0.164 0.281,-0.149 0.296,-0.132 0.346,-0.115 0.379,-0.082 0.33,-0.066 0.379,-0.05 0.445,-0.016 0,2.257 -0.116,0 -0.197,0.083 -0.132,0.098 -0.099,0.132 -0.083,0.198 -0.049,0.198 -0.017,0.247 0,0.247 0,2.57 0.693,0 0,2.043 z"
               id="path3440"
               style="fill:#000000;fill-opacity:1;fill-rule:nonzero;stroke:none" />
          </g>
          <g
             transform="translate(84.3338,86.1051)"
             id="g3442">
            <path
               d="m 0,0 0.198,0.132 0.23,0.165 0.248,0.164 0,-2.175 -0.017,-0.197 -0.016,-0.198 0,-0.181 L 0.626,-2.488 0.61,-2.735 0.56,-2.966 0.445,-3.114 0.297,-3.229 0.099,-3.312 l -0.099,0 0,-1.977 0.198,0.214 0.197,0.313 0.215,0.363 0.066,0 0,-1.467 3.245,0 0,9.244 L 3.889,3.823 3.823,4.202 3.724,4.597 3.592,4.91 3.394,5.256 3.18,5.553 2.933,5.849 2.669,6.03 2.373,6.228 2.093,6.393 1.763,6.508 1.483,6.607 1.12,6.706 0.774,6.772 0.395,6.805 0,6.805 0,4.531 0.297,4.498 0.461,4.366 0.56,4.202 0.626,4.037 0.676,3.839 0.676,3.608 0.643,3.411 0.577,3.18 0.478,2.966 0.362,2.735 0.165,2.537 0,2.389 0,0 z M -0.247,-0.214 -0.033,-0.016 0,0 0,2.389 -0.033,2.356 -0.247,2.158 -0.494,1.994 -0.791,1.845 -1.071,1.681 -1.368,1.516 -1.631,1.368 -1.911,1.203 -2.175,1.038 -2.422,0.873 -2.686,0.725 -2.999,0.494 -3.246,0.247 -3.444,-0.016 -3.608,-0.297 -3.74,-0.593 -3.806,-0.89 l -0.066,-0.313 0,-0.379 0,-1.895 0,-0.247 0,-0.296 0.033,-0.264 0.066,-0.247 0.099,-0.231 0.115,-0.197 0.115,-0.215 0.132,-0.197 0.181,-0.149 0.165,-0.131 0.181,-0.099 0.198,-0.083 0.181,-0.066 0.264,-0.049 0.231,-0.049 0.28,-0.017 0.362,0.033 0.346,0.082 0.363,0.132 0.28,0.181 0.247,0.264 0.033,0.033 0,1.977 -0.115,0 -0.264,0.066 -0.181,0.116 -0.099,0.197 0,0.28 0,1.351 0,0.346 0.049,0.297 0.132,0.264 0.231,0.181 z M 0,6.805 0,4.531 -0.264,4.498 -0.478,4.366 -0.593,4.202 -0.659,4.037 l 0,-0.181 0,-0.248 0,-1.384 -3.213,0 0,1.154 0,0.445 0.066,0.395 0.066,0.379 0.165,0.379 0.164,0.297 0.198,0.296 0.247,0.28 0.264,0.181 0.28,0.198 0.28,0.165 0.33,0.115 0.313,0.099 0.329,0.099 0.379,0.066 0.379,0.033 0.412,0 z"
               id="path3444"
               style="fill:#000000;fill-opacity:1;fill-rule:nonzero;stroke:none" />
          </g>
          <g
             transform="translate(89.8206,82.8263)"
             id="g3446">
            <path
               d="m 0,0 0,7.645 -1.087,0 0,2.274 1.087,0 0,2.274 3.196,0 0,-2.274 1.418,0 0,-2.274 -1.418,0 0,-6.854 0,-0.264 0.017,-0.214 0.033,-0.181 0.066,-0.165 0.082,-0.099 0.165,-0.099 0.181,-0.066 0.264,-0.033 0.61,0 0,-2.257 -2.637,0 -0.28,0.033 L 1.434,-2.521 1.186,-2.455 0.989,-2.406 0.807,-2.307 0.643,-2.191 0.478,-2.027 0.379,-1.895 0.28,-1.73 0.198,-1.549 0.115,-1.318 0.066,-1.088 0.033,-0.84 0,-0.593 0,-0.297 0,0 z"
               id="path3448"
               style="fill:#000000;fill-opacity:1;fill-rule:nonzero;stroke:none" />
          </g>
          <g
             transform="translate(98.1413,88.7084)"
             id="g3450">
            <path
               d="m 0,0 0,-8.469 -3.196,0 0,15.587 3.196,0 0,-4.613 0.066,0 0.132,0.411 0.197,0.363 0.182,0.28 0.263,0.247 0.313,0.198 0.363,0.132 0.379,0.066 0.445,0 L 2.818,4.169 3.295,4.037 3.691,3.806 4.004,3.46 4.234,3.081 4.416,2.537 4.515,1.961 4.581,1.219 l 0,-9.688 -3.213,0 L 1.368,0 1.351,0.362 1.318,0.61 1.252,0.873 1.186,1.038 1.104,1.17 0.989,1.269 0.84,1.335 0.709,1.351 0.544,1.335 0.395,1.285 0.264,1.219 0.165,1.104 0.066,0.873 0,0.61 0,0.362 0,0 z"
               id="path3452"
               style="fill:#000000;fill-opacity:1;fill-rule:nonzero;stroke:none" />
          </g>
          <g
             transform="translate(107.4836,90.6527)"
             id="g3454">
            <path
               d="m 0,0 0.231,-0.049 0.164,-0.132 0.066,-0.099 0.05,-0.132 0.049,-0.148 0.033,-0.198 0,-1.73 -0.675,0 0,-2.043 3.905,0 0,3.262 L 3.724,-0.412 3.658,-0.049 3.559,0.297 3.411,0.626 3.246,0.906 3.048,1.17 2.834,1.384 2.554,1.582 2.224,1.779 1.829,1.977 1.384,2.125 0.824,2.224 -0.082,2.257 -0.082,0 0,0 z m -0.082,-10.578 0,2.257 0.181,0.05 0.165,0.099 0.131,0.181 0.083,0.197 0.049,0.198 0.033,0.247 0.033,0.248 0,1.598 3.23,0 0,-1.813 L 3.79,-7.695 3.724,-8.057 3.641,-8.42 3.526,-8.766 3.411,-9.013 3.246,-9.276 2.982,-9.573 2.653,-9.87 2.175,-10.133 1.747,-10.298 1.318,-10.413 0.824,-10.496 0.346,-10.562 -0.082,-10.578 z m 0,8.09 -0.676,0 0,1.73 0,0.198 0.033,0.148 0.033,0.132 0.099,0.148 0.181,0.083 0.214,0.049 0.116,0 0,2.257 -0.478,0 L -0.989,2.224 -1.401,2.158 -1.747,2.076 -2.142,1.944 -2.455,1.779 -2.752,1.582 -2.999,1.368 -3.262,1.137 -3.444,0.873 -3.641,0.56 -3.757,0.247 l -0.115,-0.329 -0.049,-0.379 -0.05,-0.363 0,-0.445 0,-5.964 0,-0.379 0.05,-0.379 0.098,-0.363 0.149,-0.346 0.132,-0.28 0.214,-0.296 0.23,-0.264 0.33,-0.247 0.214,-0.165 0.297,-0.148 0.28,-0.132 0.346,-0.115 0.329,-0.066 0.379,-0.083 0.396,-0.049 0.445,-0.033 0,2.257 -0.198,0.05 -0.198,0.099 -0.132,0.181 -0.082,0.197 -0.033,0.182 -0.033,0.263 0,0.248 0,2.57 0.676,0 0,2.043 z"
               id="path3456"
               style="fill:#000000;fill-opacity:1;fill-rule:nonzero;stroke:none" />
          </g>
          <g
             transform="translate(118.5065,92.8771)"
             id="g3458">
            <path
               d="m 0,0 0,-3.46 -0.28,0.132 -0.264,0.066 -0.28,0.049 -0.247,0.016 L -1.318,-3.18 -1.516,-3.197 -1.73,-3.229 -1.895,-3.279 -2.093,-3.361 -2.29,-3.46 -2.488,-3.575 -2.669,-3.691 -2.85,-3.872 -2.999,-4.103 -3.098,-4.3 l -0.066,-0.248 0,-0.263 0,-7.827 -3.278,0 0,12.572 3.278,0 0,-1.664 0.033,0 0.099,0.346 0.182,0.346 0.164,0.231 0.181,0.23 0.297,0.247 0.297,0.231 0.346,0.132 0.329,0.066 0.412,0.016 0.231,0 0.198,0 L -0.181,0.066 0,0 z"
               id="path3460"
               style="fill:#000000;fill-opacity:1;fill-rule:nonzero;stroke:none" />
          </g>
          <g
             transform="translate(119.5116,80.2393)"
             id="g3462">
            <path
               d="m 0,0 0,10.232 -0.709,0 0,2.274 0.709,0 0,0.84 0,0.214 0,0.198 0.016,0.198 0.066,0.198 0.066,0.197 0.099,0.165 0.099,0.165 0.115,0.165 0.132,0.148 0.165,0.165 0.181,0.131 0.198,0.116 0.214,0.082 0.214,0.066 0.214,0.033 0.297,0 2.043,0 0,-2.274 -0.198,0 L 3.724,13.28 3.542,13.231 3.427,13.132 3.328,13.017 3.262,12.885 3.229,12.737 l 0,-0.231 0.89,0 0,-2.274 -0.89,0 L 3.229,0 0,0 z"
               id="path3464"
               style="fill:#000000;fill-opacity:1;fill-rule:nonzero;stroke:none" />
          </g>
          <g
             transform="translate(128.1288,90.6527)"
             id="g3466">
            <path
               d="M 0,0 0.297,-0.049 0.478,-0.214 0.544,-0.297 0.61,-0.494 0.643,-0.659 0.676,-0.89 0.676,-7.414 0.659,-7.596 0.626,-7.761 0.593,-7.876 0.544,-8.008 0.478,-8.123 0.362,-8.205 0.231,-8.271 0.049,-8.304 l -0.049,0 0,-2.274 0.379,0.033 0.395,0.049 0.396,0.066 0.329,0.083 0.33,0.115 0.313,0.132 0.297,0.132 0.28,0.181 0.263,0.247 0.214,0.264 0.215,0.28 0.181,0.296 0.132,0.346 0.099,0.363 0.049,0.379 0.033,0.379 0,5.964 L 3.872,-0.824 3.823,-0.461 3.757,-0.115 3.658,0.231 3.493,0.56 3.345,0.84 3.114,1.137 2.867,1.368 2.636,1.565 2.307,1.746 1.961,1.944 1.631,2.06 1.252,2.158 0.873,2.224 0.412,2.257 0,2.257 0,0 z m 0,-8.304 -0.099,0 -0.148,0.049 -0.132,0.083 -0.132,0.115 -0.099,0.132 -0.049,0.148 0,0.198 0,0.165 0,6.524 0,0.231 0.017,0.165 0.032,0.197 0.116,0.132 0.214,0.132 L 0,0 0,2.257 -0.478,2.257 -0.89,2.224 -1.302,2.158 -1.681,2.076 -2.043,1.944 -2.356,1.763 -2.62,1.598 -2.867,1.368 -3.13,1.137 -3.328,0.84 -3.51,0.56 -3.641,0.214 -3.74,-0.132 l -0.083,-0.329 -0.033,-0.363 0,-0.445 0,-5.964 0,-0.379 0.066,-0.379 0.066,-0.363 0.132,-0.329 0.132,-0.297 0.231,-0.296 0.23,-0.264 0.313,-0.247 0.264,-0.165 0.28,-0.148 0.28,-0.132 0.363,-0.115 0.313,-0.066 0.395,-0.083 0.379,-0.049 0.412,-0.033 0,2.274 z"
               id="path3468"
               style="fill:#000000;fill-opacity:1;fill-rule:nonzero;stroke:none" />
          </g>
          <g
             transform="translate(139.2342,92.8771)"
             id="g3470">
            <path
               d="m 0,0 0,-3.46 -0.28,0.132 -0.231,0.082 -0.28,0.049 -0.264,0.033 -0.23,0 -0.247,-0.016 -0.165,-0.049 -0.198,-0.066 -0.181,-0.066 -0.198,-0.099 -0.148,-0.099 -0.214,-0.132 -0.198,-0.181 -0.198,-0.297 -0.115,-0.296 -0.049,-0.346 0,-7.827 -3.23,0 0,12.572 3.23,0 0,-1.664 0.065,0 0.165,0.478 0.214,0.362 0.264,0.313 0.28,0.247 0.297,0.231 0.313,0.115 0.362,0.083 0.379,0.016 0.247,0 L -0.445,0.099 -0.214,0.066 0,0 z"
               id="path3472"
               style="fill:#000000;fill-opacity:1;fill-rule:nonzero;stroke:none" />
          </g>
          <g
             transform="translate(143.7321,90.0925)"
             id="g3474">
            <path
               d="m 0,0 0.28,-0.066 0.198,-0.165 0.066,-0.099 0.049,-0.181 0.033,-0.165 0.05,-0.23 0,-5.405 L 0.626,-6.475 0.593,-6.673 0.544,-6.805 0.428,-7.003 0.28,-7.118 0,-7.167 0,-9.54 l 0.181,0.231 0.231,0.296 0.132,0.33 0.082,0.379 0.05,0 0,-1.549 3.196,0 0,15.587 -3.196,0 0,-4.778 -0.05,0 L 0.478,1.4 0.28,1.796 0.066,2.109 0,2.175 0,0 z M -0.016,0.016 0,0 0,2.175 -0.198,2.373 -0.527,2.587 -0.873,2.719 -1.252,2.818 -1.713,2.834 -2.175,2.785 -2.636,2.653 -2.982,2.488 -3.18,2.323 -3.328,2.142 -3.46,1.961 -3.592,1.763 -3.707,1.45 -3.822,1.087 -3.888,0.692 l 0,-0.659 0,-6.92 0,-0.297 0,-0.28 0.033,-0.297 0.065,-0.28 0.066,-0.23 0.099,-0.247 0.099,-0.231 0.132,-0.247 0.115,-0.198 0.198,-0.231 0.165,-0.148 0.247,-0.148 0.198,-0.099 0.296,-0.099 0.28,-0.066 0.33,-0.033 0.445,0.049 0.412,0.083 0.379,0.148 0.296,0.165 0.033,0.033 0,2.373 -0.016,-0.017 -0.313,0.066 -0.198,0.165 -0.082,0.165 -0.034,0.115 -0.032,0.198 0,0.164 0,5.405 0,0.23 0,0.182 0.066,0.164 0.098,0.149 0.198,0.148 0.297,0.049 z"
               id="path3476"
               style="fill:#000000;fill-opacity:1;fill-rule:nonzero;stroke:none" />
          </g>
          <g
             transform="translate(149.7793,95.8758)"
             id="g3478">
            <path
               d="m 0,0 0.099,0 0.099,-0.017 0.082,-0.016 0.099,-0.016 0.099,-0.033 0.099,-0.033 0.082,-0.033 0.099,-0.05 0.099,-0.049 0.082,-0.066 0.083,-0.066 0.065,-0.066 0.083,-0.066 0.049,-0.082 0.066,-0.083 0.066,-0.098 0.033,-0.083 0.049,-0.099 0.033,-0.099 0.033,-0.098 0.017,-0.099 0.016,-0.099 0.017,-0.099 0,-0.099 0,-0.099 L 1.532,-1.747 1.516,-1.845 1.499,-1.944 1.466,-2.043 1.433,-2.126 1.401,-2.224 1.351,-2.323 1.285,-2.422 1.236,-2.505 1.17,-2.57 1.104,-2.653 1.022,-2.719 0.939,-2.785 0.857,-2.85 0.774,-2.9 0.676,-2.949 0.593,-2.982 0.494,-3.032 0.395,-3.048 0.297,-3.081 0.198,-3.098 l -0.099,0 -0.099,0 0,0.132 0.082,0 0.099,0.017 0.082,0 0.099,0.033 0.083,0.016 0.099,0.033 0.066,0.049 0.098,0.05 0.083,0.033 0.082,0.066 0.066,0.049 0.066,0.066 0.066,0.066 0.049,0.066 0.066,0.082 0.05,0.083 0.033,0.082 0.049,0.099 0.033,0.082 0.016,0.083 0.017,0.082 0.017,0.099 0.016,0.082 0,0.099 0,0.083 L 1.401,-1.368 1.384,-1.269 1.367,-1.186 1.351,-1.104 1.302,-1.005 1.269,-0.923 1.219,-0.84 1.17,-0.758 1.12,-0.676 1.071,-0.61 0.988,-0.544 0.923,-0.478 0.857,-0.412 0.774,-0.362 0.692,-0.313 0.61,-0.28 0.527,-0.231 0.428,-0.198 0.362,-0.181 0.263,-0.165 0.181,-0.148 0.082,-0.132 0,-0.132 0,0 z m 0,-1.845 0.461,-0.643 0.412,0 0,0.066 -0.016,0 -0.017,0 -0.016,0.016 -0.017,0 -0.016,0 -0.017,0.017 -0.016,0 -0.017,0.016 -0.016,0.017 -0.017,0.016 -0.016,0.017 -0.033,0.016 -0.016,0.033 -0.017,0.017 -0.016,0.033 -0.462,0.659 0.066,0.016 0.049,0.017 0.066,0.016 0.05,0.033 0.033,0.017 0.049,0.032 0.033,0.033 0.033,0.033 0.017,0.017 0.033,0.033 0.016,0.049 0.017,0.033 0,0.033 0.016,0.033 0,0.033 0.017,0.05 -0.017,0.049 0,0.049 -0.016,0.05 -0.017,0.049 -0.033,0.033 -0.016,0.05 -0.033,0.033 -0.05,0.032 -0.033,0.033 -0.049,0.033 -0.05,0.017 -0.066,0.033 -0.065,0.016 -0.066,0 -0.066,0 -0.066,0.017 0,-0.116 0.016,-0.016 0.033,-0.017 0.05,-0.016 0.033,-0.033 0.016,-0.016 0.033,-0.033 0.033,-0.033 0.017,-0.033 0.016,-0.05 0.016,-0.033 0.017,-0.033 0,-0.049 0,-0.033 0,-0.033 0,-0.033 0,-0.016 -0.017,-0.033 0,-0.017 L 0.247,-1.269 0.231,-1.285 0.214,-1.318 0.198,-1.335 0.181,-1.368 0.165,-1.384 0.148,-1.401 0.115,-1.417 0.099,-1.434 0.066,-1.45 0.033,-1.466 0,-1.466 0,-1.845 z m 0,-1.253 -0.099,0 -0.099,0 -0.099,0.017 -0.099,0.033 -0.098,0.016 -0.083,0.05 -0.099,0.033 -0.099,0.049 -0.082,0.05 -0.082,0.065 -0.083,0.066 -0.082,0.066 -0.066,0.083 -0.066,0.065 -0.066,0.083 -0.049,0.099 -0.05,0.099 -0.033,0.098 -0.049,0.083 -0.017,0.099 -0.032,0.099 0,0.098 -0.017,0.099 0,0.099 0,0.099 0.017,0.099 0,0.099 0.032,0.099 0.034,0.098 0.032,0.099 0.033,0.099 0.05,0.083 0.066,0.098 0.049,0.083 0.066,0.082 0.083,0.066 0.065,0.066 0.083,0.066 0.082,0.066 0.099,0.049 0.082,0.05 0.099,0.033 0.099,0.033 0.099,0.033 0.082,0.016 0.099,0.016 L -0.099,0 0,0 l 0,-0.132 -0.099,0 -0.082,-0.016 -0.083,-0.017 -0.098,-0.016 -0.083,-0.017 -0.082,-0.033 -0.083,-0.049 -0.082,-0.033 -0.083,-0.049 -0.082,-0.05 -0.082,-0.066 -0.066,-0.066 -0.066,-0.066 -0.05,-0.066 -0.049,-0.082 -0.049,-0.082 -0.05,-0.083 -0.033,-0.082 -0.049,-0.099 -0.017,-0.082 -0.016,-0.083 -0.017,-0.099 -0.016,-0.098 0,-0.083 0,-0.099 0.016,-0.082 0.017,-0.099 0.016,-0.082 0.017,-0.083 0.033,-0.082 0.049,-0.099 0.033,-0.082 0.05,-0.083 0.065,-0.082 0.05,-0.066 0.066,-0.066 0.066,-0.066 0.082,-0.049 0.066,-0.066 0.082,-0.033 0.083,-0.05 0.099,-0.049 0.082,-0.033 0.083,-0.016 0.082,-0.033 0.099,0 0.082,-0.017 0.099,0 0,-0.132 z m 0,2.505 -0.017,0 -0.84,0 0,-0.083 0.017,0 0.033,0 0.016,0 0.016,0 0.017,0 0.017,-0.016 0.016,-0.017 0.016,0 0,-0.016 0.017,0 0,-0.017 0.016,0 0,-0.016 0,-0.016 0.017,-0.017 0,-0.016 0,-0.017 0,-0.016 0,-0.033 0,-0.033 0,-0.033 0,-0.033 0,-1.137 0,-0.049 0,-0.033 0,-0.033 0,-0.033 0,-0.017 0,-0.016 -0.017,-0.017 0,-0.016 0,-0.017 -0.016,0 0,-0.016 -0.017,-0.017 -0.016,-0.016 -0.016,0 -0.017,0 0,-0.017 -0.017,0 -0.016,0 -0.016,-0.016 -0.033,0 -0.017,0 -0.033,0 0,-0.066 0.808,0 0,0.066 -0.033,0 -0.033,0 -0.033,0 -0.017,0.016 -0.033,0 -0.016,0.017 -0.017,0 -0.016,0 -0.017,0.016 0,0.017 -0.016,0 0,0.016 -0.017,0.017 0,0.016 0,0.017 -0.016,0.016 0,0.676 0.165,0 0.181,-0.247 0,0.379 -0.033,-0.017 -0.049,0 -0.033,-0.016 -0.05,0 -0.066,0 -0.049,0 -0.066,0 0,0.774 0.033,0 0.016,0.016 0.033,0 0.017,0 0.016,0.017 0.033,0 0.017,0 0.033,0 0.033,0 0.049,-0.017 0.049,0 0.017,0 0,0.116 z"
               id="path3480"
               style="fill:#000000;fill-opacity:1;fill-rule:nonzero;stroke:none" />
          </g>
        </g>
      </g>
    </g>
  </g>
</svg>
